<svg width="80" height="85" viewBox="450 140 150 40" fill="none" xmlns="http://www.w3.org/2000/svg">

<path d="M483.562 167.6H471.312C470.5 167.6 469.721 167.921 469.147 168.493C468.573 169.065 468.25 169.841 468.25 170.65C468.25 171.459 468.573 172.235 469.147 172.807C469.721 173.379 470.5 173.7 471.312 173.7H483.562C484.375 173.7 485.154 173.379 485.728 172.807C486.302 172.235 486.625 171.459 486.625 170.65C486.625 169.841 486.302 169.065 485.728 168.493C485.154 167.921 484.375 167.6 483.562 167.6ZM495.812 137.1H492.199C491.567 135.32 490.398 133.779 488.852 132.686C487.305 131.594 485.458 131.005 483.562 131H477.438C475.542 131.005 473.695 131.594 472.148 132.686C470.602 133.779 469.433 135.32 468.801 137.1H465.188C462.751 137.1 460.414 138.064 458.691 139.78C456.968 141.496 456 143.823 456 146.25V182.85C456 185.277 456.968 187.604 458.691 189.32C460.414 191.036 462.751 192 465.188 192H495.812C498.249 192 500.586 191.036 502.309 189.32C504.032 187.604 505 185.277 505 182.85V146.25C505 143.823 504.032 141.496 502.309 139.78C500.586 138.064 498.249 137.1 495.812 137.1V137.1ZM474.375 140.15C474.375 139.341 474.698 138.565 475.272 137.993C475.846 137.421 476.625 137.1 477.438 137.1H483.562C484.375 137.1 485.154 137.421 485.728 137.993C486.302 138.565 486.625 139.341 486.625 140.15V143.2H474.375V140.15ZM498.875 182.85C498.875 183.659 498.552 184.435 497.978 185.007C497.404 185.579 496.625 185.9 495.812 185.9H465.188C464.375 185.9 463.596 185.579 463.022 185.007C462.448 184.435 462.125 183.659 462.125 182.85V146.25C462.125 145.441 462.448 144.665 463.022 144.093C463.596 143.521 464.375 143.2 465.188 143.2H468.25V146.25C468.25 147.059 468.573 147.835 469.147 148.407C469.721 148.979 470.5 149.3 471.312 149.3H489.688C490.5 149.3 491.279 148.979 491.853 148.407C492.427 147.835 492.75 147.059 492.75 146.25V143.2H495.812C496.625 143.2 497.404 143.521 497.978 144.093C498.552 144.665 498.875 145.441 498.875 146.25V182.85ZM489.688 155.4H471.312C470.5 155.4 469.721 155.721 469.147 156.293C468.573 156.865 468.25 157.641 468.25 158.45C468.25 159.259 468.573 160.035 469.147 160.607C469.721 161.179 470.5 161.5 471.312 161.5H489.688C490.5 161.5 491.279 161.179 491.853 160.607C492.427 160.035 492.75 159.259 492.75 158.45C492.75 157.641 492.427 156.865 491.853 156.293C491.279 155.721 490.5 155.4 489.688 155.4Z" fill="white"/>
</svg>