<svg width="1" height="0.5" viewBox="70 110 160 80" fill="none" xmlns="http://www.w3.org/2000/svg">

<path xmlns="http://www.w3.org/2000/svg" d="M121.13 160.351C120.996 160.495 120.877 160.653 120.775 160.822C120.658 160.972 120.568 161.141 120.509 161.322C120.419 161.498 120.359 161.687 120.332 161.882C120.212 162.446 120.274 163.033 120.509 163.56C120.642 163.925 120.853 164.257 121.129 164.532C121.405 164.807 121.738 165.018 122.105 165.15C122.455 165.315 122.84 165.396 123.227 165.386C123.611 165.39 123.993 165.32 124.35 165.179C124.703 165.009 125.031 164.791 125.325 164.532C125.599 164.257 125.815 163.93 125.963 163.572C126.11 163.213 126.184 162.829 126.182 162.441C126.192 162.055 126.111 161.672 125.945 161.322C125.796 160.965 125.586 160.637 125.325 160.351C125.049 160.078 124.722 159.862 124.362 159.715C124.002 159.569 123.616 159.494 123.227 159.497C122.841 159.501 122.46 159.581 122.105 159.732C121.742 159.872 121.411 160.083 121.13 160.351ZM108.957 172.599C108.84 172.75 108.75 172.919 108.691 173.1C108.58 173.272 108.5 173.461 108.455 173.659C108.366 174.037 108.366 174.43 108.455 174.808L108.632 175.338L108.898 175.868L109.252 176.309C109.833 176.861 110.606 177.168 111.409 177.163C111.798 177.166 112.183 177.091 112.543 176.945C112.903 176.798 113.231 176.582 113.507 176.309C113.768 176.023 113.978 175.695 114.127 175.338C114.311 174.892 114.382 174.407 114.334 173.928C114.287 173.448 114.121 172.987 113.853 172.586C113.584 172.184 113.221 171.855 112.795 171.626C112.369 171.398 111.893 171.277 111.409 171.274C110.627 171.285 109.878 171.59 109.311 172.128L108.957 172.599ZM121.13 172.128C120.861 172.408 120.65 172.739 120.509 173.1C120.261 173.633 120.179 174.228 120.273 174.808L120.45 175.338C120.515 175.525 120.604 175.704 120.716 175.868C120.825 176.022 120.943 176.17 121.07 176.309C121.351 176.578 121.683 176.788 122.045 176.928C122.399 177.084 122.782 177.164 123.168 177.164C123.555 177.164 123.937 177.084 124.291 176.928C124.649 176.779 124.979 176.57 125.266 176.309C125.55 176.039 125.778 175.715 125.935 175.356C126.093 174.997 126.176 174.611 126.182 174.219C126.192 173.833 126.111 173.449 125.945 173.1C125.796 172.743 125.586 172.415 125.325 172.128C125.038 171.868 124.708 171.659 124.35 171.51C123.996 171.354 123.614 171.274 123.227 171.274C122.841 171.274 122.458 171.354 122.105 171.51C121.742 171.65 121.411 171.86 121.13 172.128ZM108.691 163.56C108.832 163.921 109.042 164.252 109.311 164.532C109.878 165.07 110.627 165.375 111.409 165.386C111.893 165.383 112.369 165.262 112.795 165.034C113.221 164.805 113.584 164.476 113.853 164.074C114.121 163.673 114.287 163.212 114.334 162.733C114.382 162.253 114.311 161.768 114.127 161.322C113.978 160.965 113.768 160.637 113.507 160.351C113.231 160.078 112.903 159.862 112.543 159.715C112.183 159.569 111.798 159.494 111.409 159.497C110.627 159.508 109.878 159.813 109.311 160.351C108.901 160.765 108.624 161.29 108.513 161.862C108.403 162.433 108.465 163.024 108.691 163.56ZM121.13 148.573C120.869 148.859 120.659 149.188 120.509 149.544C120.283 150.081 120.221 150.672 120.331 151.243C120.442 151.814 120.72 152.34 121.13 152.754C121.411 153.022 121.742 153.232 122.105 153.372C122.458 153.528 122.841 153.609 123.227 153.609C123.614 153.609 123.996 153.528 124.35 153.372C124.708 153.223 125.038 153.014 125.325 152.754C125.599 152.479 125.815 152.153 125.963 151.794C126.11 151.435 126.184 151.051 126.182 150.663C126.192 150.277 126.111 149.894 125.945 149.544C125.796 149.188 125.586 148.859 125.325 148.573C124.91 148.164 124.382 147.888 123.809 147.777C123.236 147.667 122.643 147.729 122.105 147.954C121.742 148.095 121.411 148.305 121.13 148.573ZM84.8182 150.663V174.219C84.8182 175 85.1295 175.749 85.6835 176.301C86.2376 176.853 86.9891 177.163 87.7727 177.163H99.5909C100.375 177.163 101.126 176.853 101.68 176.301C102.234 175.749 102.545 175 102.545 174.219V150.663C102.545 149.882 102.234 149.134 101.68 148.581C101.126 148.029 100.375 147.719 99.5909 147.719H87.7727C86.9891 147.719 86.2376 148.029 85.6835 148.581C85.1295 149.134 84.8182 149.882 84.8182 150.663ZM96.6364 153.608V171.274H90.7273V153.608H96.6364ZM73 144.774V180.108C73 182.451 73.9338 184.697 75.5961 186.354C77.2584 188.011 79.5129 188.941 81.8636 188.941H129.136C131.487 188.941 133.742 188.011 135.404 186.354C137.066 184.697 138 182.451 138 180.108V144.774C138 142.432 137.066 140.185 135.404 138.528C133.742 136.872 131.487 135.941 129.136 135.941H81.8636C79.5129 135.941 77.2584 136.872 75.5961 138.528C73.9338 140.185 73 142.432 73 144.774ZM129.136 141.83C129.92 141.83 130.671 142.14 131.226 142.692C131.78 143.245 132.091 143.994 132.091 144.774V180.108C132.091 180.889 131.78 181.638 131.226 182.19C130.671 182.742 129.92 183.052 129.136 183.052H81.8636C81.08 183.052 80.3285 182.742 79.7745 182.19C79.2204 181.638 78.9091 180.889 78.9091 180.108V144.774C78.9091 143.994 79.2204 143.245 79.7745 142.692C80.3285 142.14 81.08 141.83 81.8636 141.83H129.136ZM108.957 149.044C108.84 149.194 108.75 149.364 108.691 149.544C108.601 149.72 108.541 149.909 108.514 150.104C108.425 150.482 108.425 150.875 108.514 151.252L108.691 151.782L108.957 152.312L109.311 152.754C109.878 153.292 110.627 153.597 111.409 153.608C111.893 153.605 112.369 153.485 112.795 153.256C113.221 153.027 113.584 152.698 113.853 152.297C114.121 151.895 114.287 151.435 114.334 150.955C114.382 150.475 114.311 149.991 114.127 149.544C113.978 149.188 113.768 148.859 113.507 148.573C113.231 148.3 112.903 148.084 112.543 147.938C112.183 147.791 111.798 147.717 111.409 147.719C110.627 147.73 109.878 148.035 109.311 148.573L108.957 149.044Z" fill="#FF3343"/>
<path d="M85.0922 119.004C84.935 119.164 84.8109 119.353 84.727 119.561C84.6431 119.768 84.601 119.99 84.6031 120.214L84.7415 130.419C84.7454 130.643 84.7935 130.864 84.8831 131.069C84.9726 131.275 85.1018 131.46 85.2632 131.615C85.4228 131.773 85.6119 131.897 85.8196 131.981C86.0272 132.065 86.2494 132.107 86.4734 132.105L93.2844 132.012L119.59 131.655C119.814 131.652 120.035 131.603 120.24 131.514C120.445 131.424 120.631 131.295 120.786 131.134L125.819 125.962C126.134 125.639 126.308 125.204 126.302 124.752C126.295 124.301 126.11 123.87 125.787 123.556L120.615 118.523C120.454 118.347 120.257 118.208 120.038 118.113C119.819 118.019 119.583 117.971 119.344 117.974L93.1119 118.402L86.3481 118.422C86.1217 118.431 85.8986 118.479 85.688 118.563C85.5816 118.649 85.486 118.747 85.4031 118.856C85.3421 118.907 85.2865 118.964 85.2369 119.026L85.0922 119.004ZM118.741 121.449L122.193 124.808L118.834 128.26L94.935 128.584L94.8426 121.773L118.741 121.449ZM91.4492 121.819L91.5415 128.63L88.1358 128.664L88.0438 121.877L91.4492 121.819Z" fill="#FF3343"/>
</svg>